<mxfile host="app.diagrams.net" modified="2022-01-14T08:12:28.073Z" agent="5.0 (Windows NT 10.0; WOW64) AppleWebKit/537.36 (KHTML, like Gecko) Chrome/97.0.4692.71 Safari/537.36" etag="iNd_D350l9FJNZEKGWJw" version="16.1.0" type="github">
  <diagram id="kgpKYQtTHZ0yAKxKKP6v" name="Page-1">
    <mxGraphModel dx="1422" dy="1562" grid="0" gridSize="10" guides="1" tooltips="1" connect="1" arrows="1" fold="1" page="0" pageScale="1" pageWidth="850" pageHeight="1100" math="0" shadow="0">
      <root>
        <mxCell id="0" />
        <mxCell id="1" parent="0" />
        <mxCell id="LxpipR_TzvIUaPme62HG-2" value="" style="rounded=0;whiteSpace=wrap;html=1;sketch=1;dashed=1;strokeWidth=1;perimeterSpacing=0;" vertex="1" parent="1">
          <mxGeometry x="129" y="-404" width="533" height="181" as="geometry" />
        </mxCell>
        <mxCell id="LxpipR_TzvIUaPme62HG-3" value="&lt;font style=&quot;font-size: 14px&quot;&gt;&lt;b&gt;Java 文件&lt;/b&gt;&lt;/font&gt;" style="rounded=1;whiteSpace=wrap;html=1;sketch=1;strokeWidth=1;fillColor=#d5e8d4;strokeColor=#82b366;" vertex="1" parent="1">
          <mxGeometry x="152" y="-352" width="100" height="93" as="geometry" />
        </mxCell>
        <mxCell id="LxpipR_TzvIUaPme62HG-4" value="&lt;font style=&quot;font-size: 14px&quot;&gt;&lt;b&gt;class 文件&lt;/b&gt;&lt;/font&gt;" style="rounded=1;whiteSpace=wrap;html=1;sketch=1;strokeWidth=1;fillColor=#d5e8d4;strokeColor=#82b366;" vertex="1" parent="1">
          <mxGeometry x="531" y="-352" width="100" height="93" as="geometry" />
        </mxCell>
        <mxCell id="LxpipR_TzvIUaPme62HG-6" value="&lt;font style=&quot;font-size: 14px&quot;&gt;&lt;b&gt;Java 编译器&lt;/b&gt;&lt;/font&gt;" style="rounded=1;whiteSpace=wrap;html=1;sketch=1;strokeWidth=1;fillColor=#ffe6cc;strokeColor=#d79b00;" vertex="1" parent="1">
          <mxGeometry x="333" y="-335.5" width="120" height="60" as="geometry" />
        </mxCell>
        <mxCell id="LxpipR_TzvIUaPme62HG-7" value="" style="shape=flexArrow;endArrow=classic;html=1;rounded=0;sketch=1;fontSize=14;entryX=0;entryY=0.5;entryDx=0;entryDy=0;" edge="1" parent="1" source="LxpipR_TzvIUaPme62HG-3" target="LxpipR_TzvIUaPme62HG-6">
          <mxGeometry width="50" height="50" relative="1" as="geometry">
            <mxPoint x="256" y="-223.5" as="sourcePoint" />
            <mxPoint x="326.71067811865476" y="-273.5" as="targetPoint" />
          </mxGeometry>
        </mxCell>
        <mxCell id="LxpipR_TzvIUaPme62HG-9" value="" style="shape=flexArrow;endArrow=classic;html=1;rounded=0;sketch=1;fontSize=14;exitX=1;exitY=0.5;exitDx=0;exitDy=0;entryX=0;entryY=0.5;entryDx=0;entryDy=0;" edge="1" parent="1" source="LxpipR_TzvIUaPme62HG-6" target="LxpipR_TzvIUaPme62HG-4">
          <mxGeometry width="50" height="50" relative="1" as="geometry">
            <mxPoint x="470" y="-282" as="sourcePoint" />
            <mxPoint x="520" y="-332" as="targetPoint" />
          </mxGeometry>
        </mxCell>
        <mxCell id="LxpipR_TzvIUaPme62HG-10" value="&lt;span style=&quot;font-weight: normal&quot;&gt;编译&lt;/span&gt;" style="text;strokeColor=none;fillColor=none;html=1;fontSize=24;fontStyle=1;verticalAlign=middle;align=center;sketch=1;" vertex="1" parent="1">
          <mxGeometry x="115" y="-400" width="100" height="40" as="geometry" />
        </mxCell>
        <mxCell id="LxpipR_TzvIUaPme62HG-11" value="" style="rounded=0;whiteSpace=wrap;html=1;sketch=1;fontSize=14;strokeWidth=1;dashed=1;" vertex="1" parent="1">
          <mxGeometry x="129" y="-171" width="531" height="332" as="geometry" />
        </mxCell>
        <mxCell id="LxpipR_TzvIUaPme62HG-12" value="" style="whiteSpace=wrap;html=1;aspect=fixed;dashed=1;sketch=1;fontSize=14;strokeWidth=1;fillColor=#dae8fc;strokeColor=#6c8ebf;" vertex="1" parent="1">
          <mxGeometry x="223" y="-98" width="228" height="228" as="geometry" />
        </mxCell>
        <mxCell id="LxpipR_TzvIUaPme62HG-13" value="&lt;span style=&quot;font-size: 14px&quot;&gt;&lt;b&gt;类加载器&lt;/b&gt;&lt;/span&gt;" style="rounded=1;whiteSpace=wrap;html=1;sketch=1;strokeWidth=1;fillColor=#ffe6cc;strokeColor=#d79b00;" vertex="1" parent="1">
          <mxGeometry x="275" y="-61" width="120" height="60" as="geometry" />
        </mxCell>
        <mxCell id="LxpipR_TzvIUaPme62HG-14" value="&lt;span style=&quot;font-size: 14px&quot;&gt;&lt;b&gt;执行引擎&lt;/b&gt;&lt;/span&gt;" style="rounded=1;whiteSpace=wrap;html=1;sketch=1;strokeWidth=1;fillColor=#ffe6cc;strokeColor=#d79b00;" vertex="1" parent="1">
          <mxGeometry x="275" y="41" width="120" height="60" as="geometry" />
        </mxCell>
        <mxCell id="LxpipR_TzvIUaPme62HG-15" value="&lt;span style=&quot;font-weight: normal&quot;&gt;加载与执行&lt;/span&gt;" style="text;strokeColor=none;fillColor=none;html=1;fontSize=24;fontStyle=1;verticalAlign=middle;align=center;dashed=1;sketch=1;" vertex="1" parent="1">
          <mxGeometry x="149" y="-157" width="100" height="40" as="geometry" />
        </mxCell>
        <mxCell id="LxpipR_TzvIUaPme62HG-16" value="JVM" style="text;strokeColor=none;fillColor=none;html=1;fontSize=24;fontStyle=1;verticalAlign=middle;align=center;dashed=1;sketch=1;" vertex="1" parent="1">
          <mxGeometry x="208" y="-98" width="100" height="40" as="geometry" />
        </mxCell>
      </root>
    </mxGraphModel>
  </diagram>
</mxfile>
